<svg width="22" height="16" viewBox="0 0 22 16" fill="none" xmlns="http://www.w3.org/2000/svg">
<g id="Group">
<path id="Vector" d="M10.8806 10.1971C11.4438 10.1971 11.9839 9.97234 12.3822 9.57233C12.7805 9.17231 13.0042 8.62977 13.0042 8.06407C13.0042 7.49836 12.7805 6.95582 12.3822 6.5558C11.9839 6.15579 11.4438 5.93106 10.8806 5.93106C10.3174 5.93106 9.77721 6.15579 9.37895 6.5558C8.9807 6.95582 8.75696 7.49836 8.75696 8.06407C8.75696 8.62977 8.9807 9.17231 9.37895 9.57233C9.77721 9.97234 10.3174 10.1971 10.8806 10.1971Z" fill="#B4B9CA"/>
<path id="Vector_2" fill-rule="evenodd" clip-rule="evenodd" d="M0.748779 8.06403C2.10152 3.73723 6.12578 0.598511 10.8806 0.598511C15.6353 0.598511 19.6596 3.73723 21.0123 8.06403C19.6596 12.3908 15.6353 15.5295 10.8806 15.5295C6.12578 15.5295 2.10152 12.3908 0.748779 8.06403ZM15.1278 8.06403C15.1278 9.19544 14.6803 10.2805 13.8838 11.0806C13.0873 11.8806 12.007 12.33 10.8806 12.33C9.75412 12.33 8.67382 11.8806 7.87731 11.0806C7.08079 10.2805 6.63332 9.19544 6.63332 8.06403C6.63332 6.93261 7.08079 5.84754 7.87731 5.0475C8.67382 4.24747 9.75412 3.79802 10.8806 3.79802C12.007 3.79802 13.0873 4.24747 13.8838 5.0475C14.6803 5.84754 15.1278 6.93261 15.1278 8.06403Z" fill="#B4B9CA"/>
</g>
</svg>
